# xmcd
#
# Track frame offsets: 
#        150
#        13195
#        34918
#        58009
#        72295
#        88345
#        108595
#        135478
#        159572
#        170545
#        183113
#        198356
#        221062
#        242087
#        253628
#
# Disc length: 3535 seconds
#
# Revision: 1
# Processed by: cddbd v1.5.2PL0 Copyright (c) Steve Scherf et al.
# Submitted via: ExactAudioCopyFreeDBPlugin 1.0
#
DISCID=d80dcd0f
DTITLE=Various Artist - The Best Of Perception and Today Records [CD2]
DYEAR=2012
DGENRE=R&B
TTITLE0=Fatback Brother Bill Curtis - Dance Girl
TTITLE1=Bartel - Boogie
TTITLE2=Dizzy Gillespie - Alligator
TTITLE3=Black Ivory - I Keep Asking You Questions
TTITLE4=Julius Brockington - Rock Steady
TTITLE5=Tyrone Washington - Submission
TTITLE6=Joe Thomas - Every Brother Ain't A Brother
TTITLE7=Bartel - You've Been Bitten
TTITLE8=Black Ivory - Surrender
TTITLE9=The Eight Minutes - Find The One Who Loves You
TTITLE10=Astrud Gilberto - Take It Easy My Brother Charlie
TTITLE11=James Moody - Heritage Hum
TTITLE12=J.J. Barnes - Wishful Thinking
TTITLE13=The Eight Minutes - Looking For A Brand New Game
TTITLE14=Wanda Robinson - A Possibility (Back Home)
EXTD=
EXTT0=
EXTT1=
EXTT2=
EXTT3=
EXTT4=
EXTT5=
EXTT6=
EXTT7=
EXTT8=
EXTT9=
EXTT10=
EXTT11=
EXTT12=
EXTT13=
EXTT14=
PLAYORDER=
